<svg version="1.1"  xmlns="http://www.w3.org/2000/svg" xmlns:xlink="http://www.w3.org/1999/xlink" x="0px" y="0px"
	 width="156" height="156" viewBox="0 0 864 864" enable-background="new 0 0 864 864" xml:space="preserve">
<g>
	<path d="M226.5163,428.9857c0.0967-2.4698,0.1366-4.9422,0.2898-7.4091c1.1747-18.8593,4.5239-37.5219,7.8238-56.0963
		c6.0009-30.6606,12.7155-61.1716,19.7946-91.6013c1.3372-5.9059,2.6866-11.809,4.0372-17.7119
		c7.6128-1.4647,15.2703-2.6825,22.9788-3.5573c-6.606,29.4187-11.3973,59.1942-15.7775,89.0117
		c-2.9991,20.731-5.4321,41.5368-8.2083,62.2975c-0.3548,2.7956-0.7442,5.5868-1.163,8.3736
		c-0.3756,1.2787-0.7468,2.6048-1.1387,4.1147c-0.3122,1.2027-1.6523,6.7903-1.6523,8.1862
		c0.0048,2.426-1.6018,6.4287,0.6825,7.2461c7.7479,2.7721,16.414,1.2065,24.6212,1.8091c0.4687-1.1473,1.0115-2.2673,1.4066-3.4423
		c0.5304-1.5795,1.0347-4.5577,1.3103-6.1328c0.3362-1.9295,0.6334-3.8655,0.9355-5.8005c0.487-1.5962,0.9926-3.1819,1.5768-5.0545
		c5.0698-15.93,12.2819-31.0258,20.1844-45.7144c5.8083-10.5112,12.675-20.3426,20.0461-29.7897
		c-0.8824,4.6871-1.7657,9.374-2.6316,14.0638c-3.1852,18.3726-6.3881,36.7755-8.1933,55.3469
		c-0.3585,3.6877-0.6069,7.3854-0.9116,11.0777c-1.0385,16.49-1.1175,33.2437,2.1644,49.5143
		c0.5504,2.7267,1.3158,5.4055,1.9734,8.1086c2.346,7.6894,5.6283,14.9629,11.6448,20.5269
		c1.8388,1.7007,4.074,2.9157,6.1104,4.3736c15.9792,10.1673,30.3577-12.4306,14.3787-22.5978
		c-0.3348-0.0525-0.6967-0.0139-1.0049-0.1536c-3.1758-1.461-3.9294-5.8244-5.135-8.6078
		c-0.5161-2.0211-1.1196-4.0219-1.5487-6.0632c-2.9588-14.0825-2.7377-28.6344-1.8871-42.9177
		c0.2797-3.4308,0.5047-6.8667,0.8364-10.2929c1.728-17.9368,4.8481-35.7063,7.9133-53.451
		c2.6729-14.4752,5.552-28.9177,7.9054-43.4485c0.503-4.4803,1.722-12.5381-0.8094-16.5329
		c-2.0178-3.1846-4.482-6.5051-7.9019-8.0919c-6.8093-3.1591-9.9921-0.7423-15.1299,1.7261
		c-0.9796,0.727-1.9924,1.4105-2.9373,2.1808c-6.8516,5.5826-12.3658,12.6479-18.2426,19.1815
		c-5.8975,7.1434-11.6002,14.4551-16.9286,22.0262c3.8121-25.177,8.0573-50.2933,13.6331-75.1485
		c0.7393-3.2512,1.4886-6.5013,2.2472-9.7496c4.0177-0.721,8.0158-1.5489,11.9772-2.569
		c11.6941-3.2288,23.2879-7.0478,33.7701-13.2942c3.8216-2.3995,5.769-3.498,9.3722-6.2679
		c6.0272-4.6334,11.2538-10.1819,15.4684-16.5127c0.9803-1.6153,2.0247-3.1932,2.9405-4.8457
		c4.5153-8.1488,7.3649-17.0948,8.817-26.2773c0.2263-1.865,0.512-3.7234,0.6765-5.5951
		c0.7453-8.4332,0.2628-16.9628-1.8926-25.1661c-0.4521-1.4838-0.8333-2.9909-1.356-4.4511
		c-2.3841-6.6582-6.3426-12.5724-11.8971-16.9848c-1.1688-0.7831-2.2902-1.6423-3.5065-2.3494
		c-5.6564-3.2887-12.1603-4.4591-18.6326-4.0327c-6.2065,0.7858-12.2794,2.257-17.7469,5.4205
		c-4.4237,2.6482-8.54,5.7249-11.9828,9.5985c-3.4587,3.7458-6.965,7.4608-10.1314,11.4616
		c-2.6136,3.4501-5.0566,7.0488-6.5707,11.1369c-0.8381,2.3449-1.5411,4.7277-2.0807,7.153
		c-1.7943,4.3686-3.4117,8.8151-5.0378,13.202c-5.5044,15.2258-9.9661,30.7786-13.9409,46.4599
		c-2.5721,0.3036-5.1453,0.5944-7.716,0.8868c-5.1732,0.5477-10.319,1.2817-15.4512,2.0982
		c1.8028-8.0361,3.5856-16.0766,5.2986-24.1325c2.1855-10.4378,4.7812-20.9113,5.3317-31.5954l0.001,0.0008
		c0.2322-18.9388-26.5496-19.2675-26.7826-0.3293c-0.7573,8.9195-2.9324,17.687-4.7644,26.4334
		c-2.5142,11.817-5.1559,23.6059-7.8347,35.3866c-12.3279,3.1966-24.2982,7.5778-36.0247,12.5291
		c-10.5602,4.5918-20.4922,10.45-29.9616,16.9699c-7.8273,5.1898-13.8015,12.3063-19.3403,19.767
		c-5.0511,7.0213-9.1272,14.6504-12.7304,22.4926c-3.7659,8.147-5.4872,16.9134-6.4697,25.7715
		c-0.557,7.1391-0.3875,14.4224,1.2219,21.4308c0.3179,1.3851,0.7464,2.7426,1.1197,4.1144c1.88,5.0091,0.8565,2.6155,3.0382,7.1949
		c8.3636,16.9931,32.3952,5.1655,24.0316-11.8275c-0.9352-1.7552-0.4911-0.8404-1.3223-2.7492
		c-1.5862-4.9335-1.8441-10.1773-1.4555-15.322c0.6031-5.9918,1.668-11.9384,4.1881-17.459
		c2.8139-6.167,5.981-12.1755,9.9116-17.717c3.7671-5.1157,7.6415-10.1306,13.0333-13.6609
		c7.9482-5.5168,16.3143-10.4406,25.1815-14.3423c6.156-2.6167,12.398-5.0285,18.7293-7.174
		c-0.3279,1.4419-0.6593,2.8831-0.9859,4.3253c-7.14,30.6844-13.9028,61.4534-19.9567,92.3707
		c-3.4986,19.5461-6.9628,39.1917-8.2319,59.0376c-0.1809,2.8371-0.2377,5.6805-0.3598,8.5207
		c0.0943,9.3613-0.0592,4.9355,0.3935,13.2802c1.0676,18.9096,27.8093,17.3997,26.742-1.5096
		C226.4879,432.9667,226.6355,436.5252,226.5163,428.9857z M351.3956,148.9368c2.2708-1.2058,4.7648-1.6454,7.2907-1.8979
		c1.2365,0.1104,2.6258,0.441,3.3696,1.5334c1.7644,1.9968,2.5111,4.5986,3.153,7.1267c1.6958,6.5656,1.2646,13.317,0.3727,19.9608
		c-1.0988,7.3841-3.9921,14.1489-7.9707,20.4038c-4.0827,6.1719-10.0302,10.3096-16.218,14.1249
		c-7.585,4.3766-15.8839,7.1635-24.2741,9.5237c2.9531-10.785,6.2086-21.4837,10.0015-32.0145
		c1.0283-2.7912,2.0582-5.5893,3.1378-8.367c1.1186-1.616,1.9828-3.5976,2.4724-5.9812c0.0045-0.0284,0.0125-0.0557,0.0171-0.0841
		c1.4341-3.2912,2.9996-6.522,4.8108-9.6328l-0.0009-0.0001c1.3315-1.4827,2.283-3.0074,2.9394-4.5325
		c1.6476-1.8398,3.3219-3.6563,4.9967-5.4696C347.1747,151.6837,349.1772,150.1973,351.3956,148.9368z"/>
	<path d="M386.2356,295.4729c-1.5927,1.7951-3.0461,3.7089-4.5693,5.5632c-8.1708,10.7507-14.1205,22.9778-18.4346,35.7391
		c-0.9587,2.8358-1.7661,5.7202-2.6496,8.5804c-3.9156,14.1666-6.775,28.6891-7.6302,43.3847
		c-0.1449,2.4895-0.1562,4.985-0.2302,7.4776c0.1976,7.6932,0.3582,17.3486,4.6349,24.1116
		c1.2717,2.0114,2.6476,4.0717,4.5498,5.5018c2.3741,1.7849,5.331,2.6208,7.9965,3.9311c2.9731-0.0918,6.0123,0.3585,8.9188-0.2762
		c4.6703-1.0197,9.2552-4.4973,12.7177-7.5896c5.553-4.9587,10.0489-11.0141,14.5599-16.8827
		c3.8611-5.184,7.4522-10.5445,10.8475-16.0264c0.0019,0.0557,0.0046,0.1113,0.0066,0.167
		c0.6746,6.404,1.312,13.7008,6.0536,18.6941c2.0368,2.1446,4.8182,3.4315,7.2269,5.1469
		c16.1678,7.3837,26.9597-13.6169,13.9896-22.7333c0.0179-2.3994,0.149-4.6673-0.5017-2.0391
		c-0.5592-14.8334,0.9133-29.5948,2.3282-44.3491c0.7725-7.6967,1.5397-15.3946,2.3314-23.0897
		c0.3499-1.1917,0.7053-2.3815,1.0369-3.5794c1.7685-7.1985,3.24-14.5279,2.9075-21.9671
		c-2.0547-9.6244-1.0856-10.113-20.2195-9.3426c-3.4369-4.393-8.3894-7.3575-14.1113-8.0049
		c-1.996-0.2258-4.0144,0.1476-6.0221,0.2212c-2.0492,0.6339-4.1645,1.0859-6.1479,1.9021
		C398.3633,283.0837,391.5121,289.5245,386.2356,295.4729z M408.9801,310.4573c1.2881,5.445,6.0916,9.3916,11.4319,10.123
		c-3.1264,9.3733-6.9369,18.5035-11.3545,27.3689c-7.1288,14.1349-14.7957,28.0401-24.2321,40.7933
		c-2.75,3.6181-3.4909,4.6967-5.3031,6.848c0.0263-1.5606,0.0469-3.1212,0.128-4.6797c0.6873-12.7707,3.1921-25.3867,6.5416-37.7052
		c0.7336-2.4135,1.4067-4.8462,2.2001-7.2407c3.303-9.9692,7.7968-19.5877,14.0702-28.0461
		C404.5609,315.2922,406.6598,312.8009,408.9801,310.4573z"/>
	<path d="M474.3152,280.2654c-1.5394,8.7719-2.4587,17.6445-3.3604,26.5005c-1.451,16.2518-3.1237,32.4804-5.328,48.6478
		c-0.1846,1.3398-0.3918,2.6762-0.587,4.0145c-2.656,11.7006-5.0304,23.4804-6.2206,35.432
		c-0.7978,10.9818-1.5775,8.4064,24.0804,12.2339c1.9304,0.2879,3.3436-11.3314,3.6219-12.7159
		c1.6549-9.9567,3.3695-19.9052,4.8468-29.8901c0.257-1.1219,0.5027-2.2468,0.7637-3.3672
		c3.2632-13.2289,7.4346-26.264,13.0362-38.6995c1.0243-2.2745,2.1484-4.5026,3.223-6.7539
		c5.4828-11.105,12.1346-21.526,19.8306-31.2041c-0.892,10.4947-2.3454,20.9478-3.7465,31.3799
		c-2.375,17.3233-4.754,34.6479-6.6954,52.0255c-1.3578,11.47-2.3287,22.6738-1.0635,34.1841
		c0.3228,1.4017,0.487,2.8496,0.9681,4.2054c1.5647,4.4084,4.358,9.3908,9.4028,10.8273c3.8969,1.1096,8.2214,0.5142,12.1458-0.496
		c2.1608-0.556,3.5731-2.6732,5.3596-4.01c7.9449-7.6969,4.8853-17.4507-1.7391-21.6158c0.016-6.7185,0.9229-13.4492,1.548-20.1253
		c1.9135-17.1803,4.2799-34.3059,6.6224-51.4324c2.1155-15.7729,4.3807-31.6012,4.6973-47.5336
		c-0.2662-5.9445-0.1876-12.9816-3.9586-18.0573c-3.9664-5.3394-7.6914-7.2911-14.2775-7.6543
		c-2.0579-0.1134-4.0531,0.7513-6.08,1.1267c-1.4024,0.662-2.8539,1.2302-4.2084,1.9858
		c-7.2711,4.0561-13.0359,10.8231-18.6233,16.813c-3.8891,4.8295-4.7201,5.6976-8.3396,10.8797
		c-0.0726,0.1039-0.1384,0.2122-0.2107,0.3162C495.8029,266.1823,477.6082,265.0818,474.3152,280.2654z"/>
	<path d="M560.0107,381.225c-0.0684,0.3691-0.5574,1.0316-0.1904,1.1107c26.9188,5.945,23.7913,13.1298,27.2028,2.3405
		c3.2815-9.5993,7.7725-18.7094,12.4066-27.7109c2.7051-5.269,5.5672-10.4474,8.4928-15.5889
		c0.8535,3.0096,1.892,5.9757,3.1538,8.8717c0.9314,2.1383,2.0537,4.1885,3.0807,6.2827
		c6.4825,11.4826,15.114,21.6933,25.1601,30.2295c2.3647,2.0091,4.874,3.8412,7.3112,5.7619
		c14.9987,10.5704,32.3071,17.7062,50.6208,19.7714c4.1224,0.4628,8.2853,0.4458,12.4279,0.6704
		c16.7971-1.0709,8.562-0.1407,24.7123-2.7207c18.6882-3.0746,14.3398-29.5038-4.3487-26.4291
		c-12.6613,2.1602-6.2874,1.3605-19.1227,2.394c-3.0835-0.1142-6.1793-0.0424-9.2511-0.3343
		c-13.8983-1.3285-27.0936-6.6001-38.5497-14.461c-1.9106-1.4756-3.8784-2.8795-5.7314-4.4266
		c-7.6-6.3456-14.2234-13.9122-19.2704-22.433c-0.7036-1.369-1.4641-2.7104-2.1116-4.1069
		c-2.787-6.0071-4.2162-12.5045-3.8841-19.132c0.4544-3.6603,0.4666-4.689,1.3887-8.3c1.6169-6.3328,4.345-12.2976,7.4203-18.0403
		c2.4498-4.5406,4.9781-9.0374,7.6269-13.462c0.8437-1.084,1.6926-2.1642,2.5312-3.2518c3.2933-4.2864,6.636-8.5557,8.9584-13.4559
		c2.1405-12.735,3.4979-9.0362-20.0683-16.4056c-1.4524-0.4543-7.2821,8.1266-8.0835,9.3185
		c-1.8811,2.8076-3.6686,5.6721-5.4202,8.558c-7.4343,9.5418-14.9618,19.0189-21.6942,29.0807
		c-1.8192,2.7709-3.5953,5.5683-5.3774,8.3621c1.4568-10.0606,2.869-20.1275,4.1992-30.2056
		c2.6124-20.1888,5.0654-40.4076,8.3892-60.495c1.7699-10.1297,3.7839-20.2206,5.4262-30.3691l0.0367,0.0036
		c1.946-18.8392-24.6968-21.5911-26.6429-2.7518c-1.6891,9.5065-3.5034,18.9951-5.1677,28.5083
		c-3.4014,20.4768-5.9052,41.0889-8.568,61.6711c-2.7848,21.0889-5.8848,42.1353-9.147,63.1552
		c-2.0201,13.5121-4.2349,26.9925-6.5552,40.4557c-0.2031,1.1694-0.4028,2.3388-0.6101,3.5075
		C559.5233,384.2197,560.8738,376.5864,560.0107,381.225z M635.6422,253.9411c-0.0319,0.0513-0.0673,0.1004-0.0994,0.1515
		c0.0971-0.1778,0.1931-0.3566,0.2952-0.5312C635.9091,253.4387,635.716,253.8192,635.6422,253.9411z"/>
	<path d="M507.9804,507.2983c-1.5255,12.087-3.56,24.1008-5.0976,36.1877c-1.7917,12.4133-2.2596,24.9186-1.5616,37.4267
		c0.8284,7.7758,2.1293,17.7385,8.4617,23.2259c1.7384,1.5063,3.8923,2.452,5.8386,3.678c2.5499,0.3492,5.0806,1.1989,7.6502,1.0485
		c9.9848-0.5848,16.731-9.8045,21.9572-17.1373c5.6721-8.6324,10.3281-17.8491,14.6893-27.2028
		c0.1901,0.8568,0.3834,1.7131,0.5618,2.5721c2.3138,8.3864,5.949,16.6581,12.7448,22.4218
		c4.8029,4.0734,6.1115,4.0416,11.8807,6.3131c2.2646,0.3461,4.5063,0.9183,6.7937,1.0372
		c11.1194,0.5642,21.7565-4.4371,31.8725-8.3251c10.98-4.218,22.2435-7.7987,33.7708-10.1945
		c2.3525-0.4889,4.7271-0.8681,7.0903-1.302c11.0008-1.6758,22.1641-2.6329,33.2894-1.8561
		c1.8448,0.1276,3.6804,0.3718,5.5211,0.5518c7.308,1.0894,14.92,2.5803,20.9607,7.0849c0.3226,0.3354,0.644,0.6707,0.9661,1.006
		c14.1876,12.5472,31.9316-7.5165,17.7446-20.0638c-1.2422-1.0477-2.4842-2.0956-3.7262-3.1434
		c-1.5059-0.9758-2.9566-2.0408-4.5159-2.9276c-8.8215-5.0162-18.9077-7.2556-28.8598-8.6174
		c-2.3453-0.2179-4.6849-0.5036-7.0354-0.6556c-13.1151-0.8477-26.2744,0.2535-39.2333,2.2853
		c-2.7607,0.5173-5.5338,0.973-8.2822,1.5516c-12.7263,2.6784-25.1682,6.6233-37.2991,11.2782
		c-6.7278,2.5859-13.4182,5.5557-20.5377,6.8961c-0.4852,0.0659-1.14,0.2264-1.6194-0.0169
		c-3.2418-1.6598-4.2261-5.8823-5.3389-8.9506c-0.3434-1.5231-0.7612-3.0315-1.0309-4.5695
		c-1.765-10.0849-1.2652-20.4012-0.4686-30.5493c0.9733-10.5136,2.3051-20.9888,4.1813-31.3828
		c0.093-0.5225,1.6437-9.0896,1.3768-9.2291c-18.6682-9.6443-21.9651-16.0547-26.6747-3.6898
		c-2.1749,6.5094-4.0956,13.106-6.5809,19.5099c-5.0151,13.1496-10.3259,26.1847-16.0796,39.0304
		c-4.2682,9.4786-8.4992,19.0302-13.5596,28.1215c0.0582-7.3054,0.5772-14.5987,1.6248-21.8564
		c1.5687-12.3962,3.7079-24.7097,5.199-37.1152c0.7377-8.1539,1.8635-17.4909-0.9629-25.3845
		c-0.6524-1.8222-1.6489-3.5019-2.4739-5.2529c-1.4361-1.625-2.6459-3.4826-4.309-4.8746
		c-6.8495-5.7324-16.0948-5.4104-24.37-4.2882c-10.5568,1.7405-20.9233,4.3361-31.3016,6.9057
		c-0.1042-0.1022-0.2109-0.2022-0.3145-0.3051c-6.447-5.5262-14.0473-10.144-22.6971-10.9365
		c-1.6961-0.1566-3.4063-0.0254-5.1096-0.0396c-1.5755,0.2748-3.1849,0.3987-4.7264,0.8243
		c-6.0522,1.6699-11.6639,5.6628-14.6733,11.2607c-0.8115,1.5094-1.259,3.1876-1.8885,4.7814
		c-0.1955,1.8407-0.669,3.6728-0.5865,5.522c0.1967,4.5737,2.0765,8.9237,5.1447,12.2563
		c-2.2626,4.7108-3.9079,9.7743-5.4931,14.7437c-3.4085,12.5327-5.8092,25.386-6.5133,38.3723
		c-0.1449,2.6514-0.1335,5.3091-0.2045,7.9636c0.3956,11.5363,1.0785,23.8008,6.5012,34.2849
		c1.0267,1.9847,2.3741,3.7865,3.561,5.6797c1.5849,1.6257,2.9498,3.4999,4.7552,4.8771c6.821,5.2036,14.3911,6.456,22.5997,4.0291
		c5.7416-1.6974,8.1955-4.0604,12.9156-7.4618c9.8499-8.6268,16.9482-19.7498,21.4971-31.9821
		c0.999-2.6866,1.7647-5.4542,2.6473-8.1813c3.6157-14.1185,5.0248-28.8317,3.234-43.3395
		c-0.3282-2.6601-0.8869-5.2866-1.3307-7.9299c-0.8227-3.6884-1.9423-7.2755-3.3069-10.7526
		c6.489-1.5797,12.9953-3.077,19.5973-4.1343c0.2425,0.0261,0.9627-0.0781,1.8253-0.1938c0.0009,0.0857,0,0.1715,0,0.2572
		C508.6495,500.0874,508.3167,503.6682,507.9804,507.2983z M463.1161,554.4315c-0.6202,2.0078-1.1602,4.0419-1.8597,6.0231
		c-2.7686,7.8422-7.0034,15.152-13.0099,20.9522c-0.676,0.6016-1.3623,1.1913-2.0275,1.8048
		c-0.3157,0.291-0.7865,0.498-0.9143,0.9074c-0.0617,0.1938-0.883,0.3418-1.1879-0.1602
		c-3.8143-6.277-2.7731-14.9874-3.1696-22.0584c0.0454-2.1402,0.0201-4.2834,0.1278-6.4214
		c0.5475-10.9799,2.562-21.8419,5.3549-32.4572c0.9661-3.0921,1.7134-5.7374,2.8985-8.7104
		c0.5938-1.489,1.3373-3.0154,2.1249-4.4258c0.1636-0.2924,0.4051-0.5436,0.5272-0.8557c0.025-0.0595-0.1293,0.0096-0.1976,0.0289
		c0.6672-0.5427,1.2478-1.1085,1.7881-1.6837c2.3716-0.2058,4.7367-0.5157,7.0943-0.9048c1.4796,2.804,2.6314,5.8566,3.4965,9.3867
		c0.3445,1.8841,0.7761,3.7545,1.0343,5.6522C466.6937,532.5023,465.6631,543.6772,463.1161,554.4315z"/>
	<path d="M423.2381,667.144c18.6121,3.5065,23.571-22.8151,4.9589-26.3214c-4.1066-0.7571-8.2495-1.3331-12.4378-1.2977
		c-4.3603,0.1884-5.6689,0.1138-10.1016,0.8786c-1.2481,0.2153-2.4846,0.4749-3.7143,0.7588
		c0.1764-7.4633,0.3474-14.9266,0.5409-22.3895c0.6319-21.6057,1.4846-43.2067,1.8451-64.8192
		c0.2194-15.8519,0.5446-31.7249-0.3819-47.5616c-0.2898-4.2864-0.4109-8.7235-1.1294-12.9708
		c-0.2368-1.3989,0.4583-3.822-0.9207-4.156c-24.7346-5.9757-22.3697-9.6318-26.2405,0.4557
		c-1.9412,7.2507-2.8056,14.7407-4.586,22.032c-3.4469,15.0067-7.594,29.8657-13.5675,44.0903
		c-8.297,19.4047-17.5309,38.5018-29.8278,55.7408c-6.5787,8.434-12.9102,16.6097-22.3331,22.0258
		c-0.4856,0.069-0.9714,0.282-1.4562,0.2101c-1.9699-0.2925-3.4875-1.6237-4.7763-3.0498
		c-4.0823-4.5154-6.3968-10.2712-8.5389-15.863c-0.7946-2.5768-1.6899-5.1243-2.3831-7.7299
		c-4.3222-16.2462-5.4636-33.1475-6.2897-49.865c-0.5223-18.7025-0.4221-37.4539,2.3159-56.01
		c1.3054-9.2744,2.6527-18.5485,4.5288-27.7286l0.0007,0.0003c3.5038-18.6125-22.8182-23.5676-26.3222-4.9551
		c-1.9523,9.5837-3.3631,19.2642-4.7288,28.9455c-2.9581,20.0369-3.1127,40.2853-2.5679,60.4828
		c0.8655,18.4612,2.2591,37.0848,6.9393,55.0361c0.843,3.2339,1.9186,6.4025,2.8784,9.6037
		c1.1439,2.9077,2.1435,5.8758,3.4306,8.723c4.6334,10.2507,11.5082,20.7037,22.0978,25.592
		c2.7126,1.2519,5.7107,1.759,8.5656,2.6385c3.1693-0.0248,6.3774,0.4225,9.5074-0.0739
		c13.5974-2.1577,24.5104-12.5173,33.1-22.4929c2.4774-2.8766,4.7188-5.9484,7.078-8.9227
		c11.3154-15.5825,20.2771-32.6081,28.2314-50.0867c-0.3899,13.3088-0.8534,26.616-1.2422,39.9246
		c-0.3047,11.6822-0.5607,23.3656-0.8556,35.048c-0.2973,0.1884-0.6034,0.3632-0.8974,0.5569
		c-11.902,7.8403-22.344,17.7132-31.209,28.847c-1.7381,2.3696-3.5693,4.6732-5.2138,7.1091
		c-7.7552,11.4875-13.4829,24.3804-15.1832,38.2099c-0.1403,6.4127-0.6187,8.8123,0.8944,15.0682
		c1.6614,6.8708,5.2074,13.2035,10.7827,17.6547c1.7546,1.4011,3.8032,2.389,5.7049,3.5829
		c2.0326,0.6907,4.0036,1.5984,6.0973,2.0716c8.074,1.8238,16.5492,0.0204,23.6635-4.0111
		c1.7041-0.9655,3.2337-2.2105,4.8508-3.3152c4.1413-3.7273,5.196-4.326,8.6055-8.8245c5.4023-7.1284,8.8648-15.48,11.4414-23.9814
		c0.6096-2.3431,1.2849-4.6699,1.8291-7.0291c3.0215-13.1061,4.0958-26.5563,4.6712-39.9622
		c0.1126-3.2186,0.1796-6.4388,0.277-9.6583c4.9155-1.902,9.9586-2.9736,15.4902-3.0618
		C418.8756,666.379,421.0663,666.7194,423.2381,667.144z M368.4905,719.1821c-2.1034,6.3919-4.5995,13.1025-9.6652,17.791
		c-0.627,0.5804-1.3415,1.0588-2.0125,1.5883c-1.9242,1.2357-5.3693,2.8796-7.1975,0.6088
		c-0.9893-3.3472-0.8261-6.7838-0.5047-10.2401c1.7002-9.1002,5.8768-17.5884,11.1245-25.1645
		c1.278-1.845,2.6926-3.5914,4.0393-5.3868c2.8874-3.5725,5.9875-6.9698,9.2751-10.1715
		c-0.6082,8.5475-1.6093,17.0683-3.5738,25.4201C369.537,715.493,368.9856,717.3302,368.4905,719.1821z"/>
	<path d="M619.9053,633.1855c-22.3418,2.7331-44.6764,5.7546-66.6901,10.5272c-3.8997,0.882-7.8113,1.7111-11.6985,2.6459
		c-17.5938,4.2313-34.8865,9.6024-51.9526,15.601c-13.5475,4.8265-27.0873,9.6863-40.4885,14.908
		c-6.0969,2.4072-12.1467,4.9501-18.3056,7.1931v-0.0003c-17.9555,6.024-9.4364,31.4174,8.5196,25.3934
		c6.6135-2.36,13.0888-5.0953,19.6201-7.6726c13.1215-5.1082,26.3784-9.8662,39.6428-14.5906
		c19.7713-7.1967,40.052-12.7308,60.5605-17.3508c21.1415-4.5633,42.5897-7.4465,64.0428-10.0679
		C641.9557,657.4735,638.7047,630.887,619.9053,633.1855z"/>
	<path d="M125.8495,510.3451h-0.0007c13.4992-3.2682,8.8768-22.3589-4.6224-19.0905c-12.9845,3.7046-26.2603,6.2038-39.4901,8.8399
		c-13.5456,2.9621-27.0877,6.043-40.3773,10.0189c-2.2187,0.5837-4.3577,1.4095-6.5077,2.1987
		c-13.0381,4.7871-6.2684,23.226,6.7703,18.4388c1.7814-0.6542,3.539-1.3743,5.389-1.8257
		c12.6833-3.829,25.6385-6.7007,38.565-9.5674C99.0679,516.6693,112.6068,514.1171,125.8495,510.3451z"/>
	<path d="M189.5222,548.7137l-0.0005-0.0002c10.7227-8.8271-1.761-23.9918-12.4838-15.1644
		c-8.54,6.3915-17.105,12.7264-25.4256,19.4105c-14.4929,11.6541-29.4412,22.7864-45.1097,32.8214
		c-3.0224,1.9356-6.1203,3.7491-9.1806,5.6237c-8.9746,5.2132-18.0437,10.2545-27.0408,15.4275
		c-12.04,6.9241-2.2484,23.9512,9.792,17.0273c9.1569-5.2668,18.3941-10.3884,27.5189-15.7119
		c3.2699-2.0084,6.5784-3.9542,9.8085-6.025c16.1549-10.3569,31.5709-21.8385,46.5197-33.855
		C172.2944,561.5291,180.9562,555.1971,189.5222,548.7137z"/>
	<path d="M180.6416,634.3491c-0.3102,0.6638-0.6356,1.3207-0.9296,1.9921c-0.6318,1.4459-1.6322,4.0224-2.3132,5.4628
		c-1.6581,3.5081-3.7982,6.7546-5.8566,10.0331c-5.9379,9.0593-12.0322,17.9964-17.8185,27.155
		c-1.8772,3.0458-3.7448,6.0952-5.5516,9.1837c-7.0018,11.9951,9.9612,21.8975,16.9635,9.9028
		c1.6853-2.8931,3.4435-5.7399,5.1929-8.5945c5.8008-9.1804,11.9227-18.1299,17.86-27.2205
		c3.8326-6.1318,7.4584-12.3459,10.022-19.1305v0.0002C204.4218,630.7107,186.8537,621.9266,180.6416,634.3491z"/>
	<path d="M702.7272,167.994c7.0223-8.6582,14.2953-17.103,21.2085-25.856c4.2878-5.659,2.2601-2.9543,6.0914-8.1086
		c8.2858-11.1472-7.4783-22.8644-15.7641-11.7175c-3.6481,4.9085-1.7351,2.3559-5.7429,7.6534
		c-1.9709,2.497-5.8112,7.3913-7.8192,9.8087c-4.4805,5.3947-9.2333,10.5746-13.478,16.1609h-0.0005
		C678.6947,166.8983,694.1998,178.9575,702.7272,167.994z"/>
	<path d="M716.8888,243.0874c-11.1111,8.3334,0.6741,24.0472,11.7852,15.7136c13.3353-8.9136,27.4907-16.4951,41.8715-23.5588
		c15.564-6.9231,31.4589-13.0582,47.163-19.653c3.7799-1.6315,7.5574-3.25,11.2048-5.162
		c12.2672-6.5132,3.0559-23.8618-9.2118-17.3483c-3.098,1.6809-6.3922,2.9432-9.5979,4.4005
		c-16.0635,6.746-32.3325,13.0019-48.2297,20.1384c-15.462,7.6191-30.7114,15.7662-44.985,25.4697V243.0874z"/>
	<path d="M808.6762,313.9199c-2.0598,0.2469-4.1186,0.4933-6.1782,0.74c-12.6149,1.4518-25.2136,3.1498-37.8751,4.1192
		l0.0005-0.0001c-13.8601,0.8939-12.596,20.4951,1.264,19.6013c12.9911-0.9777,25.9152-2.718,38.8561-4.2072
		c2.0894-0.2501,4.1786-0.4998,6.268-0.7502C824.8019,331.7715,822.4667,312.2689,808.6762,313.9199z"/>
	<path d="M95.0264,399.8773c-5.6598-0.9325-11.3026-2.0522-17.0525-2.2694c-5.8069-0.0794-11.6222,0.1508-17.3985,0.7674h-0.0005
		c-13.7496,1.9641-10.9716,21.4088,2.7779,19.4447c4.749-0.4218,9.5207-0.6751,14.2879-0.5729
		c4.7811,0.2756,9.4742,1.2317,14.1884,2.0103c2.684,0.3946,1.2286,0.2354,4.372,0.4264
		c13.8793,0.5323,14.6321-19.0954,0.7528-19.6277C96.028,400.1453,96.673,400.1172,95.0264,399.8773z"/>
	<path d="M97.9177,186.4903c7.3562,8.0064,15.4635,15.2246,23.6941,22.3065c0.8871,0.7205,1.7759,1.4409,2.6635,2.1612
		c10.7974,8.7365,23.1529-6.5332,12.3556-15.2697c-0.7363-0.5936-1.4719-1.1873-2.2082-1.7808
		c-7.8354-6.7408-15.5613-13.5986-22.5471-21.2374c-6.0767-6.1347-12.4014-12.0327-18.1857-18.4495
		c-9.1459-10.4526-23.9278,2.4819-14.7819,12.9345C84.9321,173.8999,91.5603,180.0666,97.9177,186.4903z"/>
	<path d="M174.3412,125.5357c2.3076,7.844,4.2669,15.7904,6.7177,23.5916c4.1658,13.2496,22.9036,7.3579,18.7378-5.8915
		c-2.354-7.4788-4.2122-15.1053-6.4403-22.6225c-2.4745-9.5596-4.765-19.171-7.4638-28.6689v0.0001
		c-4.8773-13.0047-23.269-6.1079-18.3919,6.8969C169.8155,107.7309,172.0391,116.6427,174.3412,125.5357z"/>
	<path d="M473.6042,147.5922c0-2.1518,0-1.017,0.0453-3.4044c0.2051-8.7358,0.649-17.4651,1.2912-26.1801
		c0.8429-9.9843,2.0549-19.913,3.3837-29.8424h-0.0044c3.0128-13.5583-16.1616-17.8193-19.1744-4.2609
		c-1.5813,10.7792-2.8581,21.5901-3.7812,32.4461c-0.6776,9.1119-1.1392,18.2397-1.3564,27.374
		c-0.0453,2.5887,0,1.3552-0.0453,3.7007C453.8445,161.3138,473.4865,161.4808,473.6042,147.5922z"/>
	<path d="M552.4431,146.5451c0.9983-2.5695,0.4517-1.2008,1.6505-4.1016c2.1451-5.2688,3.9548-10.6564,5.7145-16.0648
		c4.3925-13.1763-14.2419-19.3877-18.6338-6.2114c-1.6476,4.9825-3.255,9.9781-5.2576,14.8313
		c-1.2259,2.9677-0.635,1.4958-1.7759,4.4149C529.099,152.3548,547.4007,159.4863,552.4431,146.5451z"/>
	<path d="M292.4464,88.5828c3.6038,13.4133,22.5736,8.3171,18.9695-5.0964c-1.001-3.7155-1.9009-7.4701-2.2225-11.3158
		c-1.9644-13.7494-21.4096-10.9717-19.4453,2.7779C290.1769,79.5747,291.2453,84.1056,292.4464,88.5828z"/>
	<path d="M571.6215,759.3689l0.0005-0.0002c-3.816-13.3544-22.702-7.9586-18.8865,5.3961
		c1.7554,8.1581,3.5667,16.3041,5.3105,24.4655c2.9035,13.5828,22.1116,9.4773,19.2088-4.105
		C575.4175,776.5303,573.5359,767.9467,571.6215,759.3689z"/>
	<path d="M715.1567,766.5112c-4.2575-4.8756-8.5775-9.6972-12.8009-14.6026c-8.5208-9.8981-16.5629-20.2018-25.2532-29.9558
		c-6.847-7.5694-13.8552-14.9789-21.1682-22.1022l-0.0005,0.0002c-9.0391-10.5454-23.9526,2.2372-14.9129,12.7827
		c7.35,7.3301,14.5509,14.7874,21.5108,22.4914c8.5245,9.5966,16.4334,19.7155,24.8055,29.4427
		c4.2974,4.9925,8.691,9.9014,13.0242,14.8633c5.2039,5.9798,10.4406,11.9362,15.8135,17.765
		c9.4183,10.2079,23.8548-3.1119,14.4359-13.3197C725.3531,778.1843,720.2488,772.3513,715.1567,766.5112z"/>
	<path d="M762.0307,678.4293c-1.552-1.1047-3.1048-2.2097-4.6571-3.3146c-10.1147-7.2703-20.2978-14.4535-30.2341-21.9641v0.0002
		c-11.0743-8.3828-22.9289,7.278-11.8551,15.6611c10.0659,7.6078,20.3783,14.8875,30.6246,22.2525
		c1.5774,1.1224,3.1547,2.2451,4.7316,3.3679C761.9584,702.486,773.3459,686.4834,762.0307,678.4293z"/>
	<path d="M784.4186,508.3041c-1.3255-0.3675-2.6509-0.7354-3.9762-1.1029c-10.7632-3.0476-21.4953-6.1905-32.1771-9.5136
		c-7.7438-2.3481-15.4752-4.8035-22.9114-8.0162l0.0005-0.0003c-13.1765-4.3922-19.3876,14.2423-6.2115,18.6342
		c7.5768,3.3149,15.5087,5.7701,23.4122,8.1758c10.8011,3.3597,21.6528,6.5369,32.5352,9.6189
		c1.3591,0.3773,2.7184,0.7542,4.0774,1.1315C792.5513,530.9443,797.8022,512.017,784.4186,508.3041z"/>
	<path d="M838.6981,526.6707c-4.5496-1.5167-9.1261-3.0139-13.5239-4.9332v0.0002c-12.5878-5.8694-20.8881,11.9326-8.3,17.802
		c5.0626,2.2656,10.3465,4.0042,15.6028,5.7618C845.6505,549.7009,851.8726,531.0701,838.6981,526.6707z"/>
	<path d="M458.0209,759.15c-1.2885,5.4847-2.7316,10.9319-4.0582,16.4084c-0.7809,3.48-0.4229,1.7842-1.0889,5.0861
		c-2.7325,13.6174,16.5263,17.4812,19.2585,3.8637c0.55-2.7538,0.2442-1.3102,0.9214-4.3285
		c1.3536-5.5964,2.836-11.1611,4.1421-16.7686h-0.0005C480.2082,749.8528,461.0338,745.5915,458.0209,759.15z"/>
	<path d="M252.0741,733.4171c-3.5386,7.3907-6.3015,15.1389-9.1122,22.8301c-2.9438,7.2982-5.2995,14.8035-7.8735,22.2308
		c-4.5202,13.1331,14.0529,19.5252,18.5729,6.3924c2.5066-7.3222,4.869-14.694,7.7515-21.8853
		c2.4302-6.6596,4.8833-13.3217,7.7159-19.8227h-0.0005C276.0196,731.1035,258.9648,721.3582,252.0741,733.4171z"/>
	<path d="M83.0479,303.3399c1.1293,0.1797,2.2584,0.36,3.3882,0.5397c13.7184,2.1675,16.7834-17.2342,3.0648-19.4015
		c-0.9341-0.1459-1.8687-0.2917-2.8028-0.438c-10.1557-1.9203-20.276-3.9961-30.1453-7.1186
		c-8.3296-2.2746-16.7558-4.2201-24.9736-6.885l0.0005-0.0001c-13.1475-4.4791-19.4818,14.1133-6.3348,18.5927
		c8.5893,2.8288,17.413,4.8556,26.1311,7.2397C61.7493,299.1246,72.3798,301.322,83.0479,303.3399z"/>
</g>
</svg>
